<svg id="Capa_1" enable-background="new 0 0 512.001 512.001" height="512" viewBox="0 0 512.001 512.001" width="512" xmlns="http://www.w3.org/2000/svg"><g><path d="m504.501 428.207h-2.5v-74.366c0-.177-.014-.351-.026-.525 3.656-12.392 7.364-26.999 9.015-39.826 1.567-12.173 2.414-29.096-8.271-35.491-10.307-6.168-25.458 2.123-36.354 10.165-8.354 6.165-16.731 14.11-24.362 22.959v-194.637c15.476-1.259 30.513-2.082 45-2.454v139.771c0 4.143 3.357 7.5 7.5 7.5s7.5-3.357 7.5-7.5v-139.995c.832-.003 1.672-.013 2.5-.013 4.143 0 7.5-3.357 7.5-7.5s-3.357-7.5-7.5-7.5c-46.258 0-97.398 4.636-151.226 13.588-101-28.11-202.421-43.588-285.774-43.588-4.143 0-7.5 3.357-7.5 7.5s3.357 7.5 7.5 7.5c.828 0 1.669.011 2.5.015v36.755c0 4.143 3.357 7.5 7.5 7.5s7.5-3.357 7.5-7.5v-36.539c69.871 1.759 151.155 13.84 233.544 34.658-23.389 4.594-47.178 9.954-71.208 16.071-56.815 14.463-112.266 32.628-162.336 52.991v-37.183c0-4.143-3.357-7.5-7.5-7.5s-7.5 3.357-7.5 7.5v43.419c-23.48 9.976-45.635 20.42-66.002 31.174-3.663 1.934-5.064 6.471-3.13 10.134 1.344 2.546 3.946 4 6.639 4 .834 0 1.676-.148 2.493-.438v189.354h-2.5c-4.143 0-7.5 3.357-7.5 7.5s3.357 7.5 7.5 7.5h160c4.143 0 7.5-3.357 7.5-7.5s-3.357-7.5-7.5-7.5h-52.5v-148.917h75v156.418c0 4.143 3.357 7.5 7.5 7.5h307c4.143 0 7.5-3.357 7.5-7.5s-3.359-7.5-7.502-7.5zm-17.5 0h-16.199c4.339-7.658 10.184-18.834 16.199-32.915zm-13.05-126.984c12.795-9.766 19.687-10.621 21.089-10.318.61.781 7.673 11.857-10.872 69.22-11.188 34.609-25.506 59.492-30.801 68.082h-135.671c-8.435-9.001-15.528-19.492-20.129-29.83-4.936-11.093-4.724-16.914-4.299-18.397 3.707-1.722 20.083 1.25 31.289 9.054 2.73 1.902 6.39 1.776 8.984-.308 2.595-2.085 3.504-5.631 2.234-8.708-.657-1.594-1.281-3.18-1.853-4.713-5.818-15.605-10.06-32.622-11.636-46.688-1.837-16.388.618-22.66 1.635-23.629 4.271-1.227 24.217 8.463 44.444 33.227 2.008 2.457 5.345 3.386 8.327 2.319 2.987-1.065 4.981-3.894 4.981-7.064 0-17.533 3.325-36.413 9.122-51.8 5.612-14.897 11.512-21.006 13.541-21.675 2.029.669 7.929 6.777 13.541 21.675 5.797 15.387 9.122 34.267 9.122 51.819 0 3.319 2.183 6.244 5.364 7.189s6.607-.312 8.42-3.096c9.102-13.968 21.19-27.22 33.168-36.359zm-211.95-154.665c15.043-3.689 30.067-7.088 45-10.186v133.334c0 4.143 3.357 7.5 7.5 7.5s7.5-3.357 7.5-7.5v-136.35c15.152-2.951 30.18-5.59 45-7.894v189.084c-6.637-6.465-13.5-12.034-20.131-16.266-12.975-8.279-23.56-10.422-30.609-6.203-8.115 4.857-11.067 16.917-9.024 36.869 1.214 11.854 4.186 25.624 8.391 39.162-12.234-4.239-26.059-5.744-33.103 1.298-10.553 10.553-1.112 36.841 15.588 58.8h-36.112zm165 118.612c-8.875-17.329-17.765-20.206-22.663-20.206-9.687 0-17.261 9.951-22.337 19.623v-141.352c15.288-2.168 30.316-3.973 45-5.405zm-327 163.037h-15v-148.918h15zm105-148.918h2.5c4.143 0 7.5-3.357 7.5-7.5s-3.357-7.5-7.5-7.5h-140c-4.143 0-7.5 3.357-7.5 7.5s3.357 7.5 7.5 7.5h2.5v148.918h-45v-196.418c0-.185-.014-.366-.028-.548 62.878-31.521 140.903-59.979 222.028-80.908v277.874h-42z"/></g></svg>