<svg id="Layer_1" height="512" viewBox="0 0 64 64" width="512" xmlns="http://www.w3.org/2000/svg" data-name="Layer 1"><path d="m1 11v43c0 3.59 2.65 6 6.6 6h47.4c.55 0 1-.45 1-1v-24h-2v23h-46.4c-2.22 0-4.6-1.05-4.6-4s2.58-4 5-4h1c.55 0 1-.45 1-1v-37h44v7h2v-8c0-.55-.45-1-1-1h-45v-6c0-.55-.45-1-1-1h-1c-4.06 0-7 3.36-7 8zm7-6v43c-2.05 0-3.78.58-5 1.59v-38.59c0-3.53 2.06-6 5-6z"/><path d="m62.12 19.88c-1.13-1.13-3.11-1.13-4.24 0l-19.09 19.09c-.07.07-.12.14-.17.22l-3.21 5.81h-16.91c-2.48 0-4.5 2.02-4.5 4.5s2.02 4.5 4.5 4.5h7.5v-2h-7.5c-1.38 0-2.5-1.12-2.5-2.5s1.12-2.5 2.5-2.5h17.5s0 0 0 0c.17 0 .33-.04.48-.12l6.32-3.49c.08-.04.16-.1.22-.17l19.09-19.09c1.17-1.17 1.17-3.07 0-4.24zm-20.41 21.82-3.16 1.75 1.75-3.16 14.75-14.75 1.41 1.41zm18.99-18.99-2.83 2.83-1.41-1.41 2.83-2.83c.38-.38 1.04-.38 1.41 0 .39.39.39 1.02 0 1.41z"/><path d="m28 29v10c0 .55.45 1 1 1h5c.55 0 1-.45 1-1v-5h4c.55 0 1-.45 1-1v-4c0-.55-.45-1-1-1h-10c-.55 0-1 .45-1 1zm2 1h8v2h-4c-.55 0-1 .45-1 1v5h-3z"/><path d="m45 24c.55 0 1-.45 1-1v-8c0-.55-.45-1-1-1h-10c-.55 0-1 .45-1 1v8c0 .55.45 1 1 1zm-9-8h8v6h-8z"/><path d="m30 14h-16c-.55 0-1 .45-1 1v14c0 .55.45 1 1 1h11c.55 0 1-.45 1-1v-3h4c.55 0 1-.45 1-1v-10c0-.55-.45-1-1-1zm-1 10h-4c-.55 0-1 .45-1 1v3h-9v-12h14z"/><path d="m28 52h2v2h-2z"/><path d="m13 39c0 .55.45 1 1 1h11c.55 0 1-.45 1-1v-5c0-.55-.45-1-1-1h-11c-.55 0-1 .45-1 1zm2-4h9v3h-9z"/><path d="m45 45c-.55 0-1 .45-1 1v4h-4c-.55 0-1 .45-1 1v4c0 .55.45 1 1 1h10c.55 0 1-.45 1-1v-9c0-.55-.45-1-1-1zm4 9h-8v-2h4c.55 0 1-.45 1-1v-4h3z"/></svg>