<?xml version="1.0" encoding="UTF-8"?>
<svg xmlns="http://www.w3.org/2000/svg" id="OBJECT" viewBox="0 0 512 512" width="512" height="512"><path d="M504.5,497H492V174.5a7.5,7.5,0,0,0-5.31-7.17L393.5,138.94V55H406a7.5,7.5,0,0,0,7.5-7.5V7.5A7.5,7.5,0,0,0,406,0H106a7.5,7.5,0,0,0-7.5,7.5v40A7.5,7.5,0,0,0,106,55h12.5V248.5H7.5A7.5,7.5,0,0,0,0,256v40a7.5,7.5,0,0,0,7.5,7.5H20V497H7.5a7.5,7.5,0,0,0,0,15h497a7.5,7.5,0,0,0,0-15ZM477,180.06V497H393.5V154.62ZM113.5,15h285V40h-285Zm20,40h245V497H295V303.5h12.5A7.5,7.5,0,0,0,315,296V256a7.5,7.5,0,0,0-7.5-7.5h-174ZM15,263.5H300v25H15Zm20,40H280V497H215V444.5a7.5,7.5,0,0,0-7.5-7.5h-100a7.5,7.5,0,0,0-7.5,7.5V497H35ZM165,452h35v45H165Zm-15,45H115V452h35Z"/><path d="M247.5,403.5A7.5,7.5,0,0,0,255,396V336a7.5,7.5,0,0,0-7.5-7.5H67.5A7.5,7.5,0,0,0,60,336v60a7.5,7.5,0,0,0,7.5,7.5ZM135,388.5v-45h45v45Zm105,0H195v-45h45Zm-165-45h45v45H75Z"/><path d="M206,80H166a7.5,7.5,0,0,0-7.5,7.5v40A7.5,7.5,0,0,0,166,135h40a7.5,7.5,0,0,0,7.5-7.5v-40A7.5,7.5,0,0,0,206,80Zm-7.5,40h-25V95h25Z"/><path d="M306,135h40a7.5,7.5,0,0,0,7.5-7.5v-40A7.5,7.5,0,0,0,346,80H306a7.5,7.5,0,0,0-7.5,7.5v40A7.5,7.5,0,0,0,306,135Zm7.5-40h25v25h-25Z"/><path d="M276,80H236a7.5,7.5,0,0,0-7.5,7.5v40A7.5,7.5,0,0,0,236,135h40a7.5,7.5,0,0,0,7.5-7.5v-40A7.5,7.5,0,0,0,276,80Zm-7.5,40h-25V95h25Z"/><path d="M206,155H166a7.5,7.5,0,0,0-7.5,7.5v40A7.5,7.5,0,0,0,166,210h40a7.5,7.5,0,0,0,7.5-7.5v-40A7.5,7.5,0,0,0,206,155Zm-7.5,40h-25V170h25Z"/><path d="M353.5,202.5v-40A7.5,7.5,0,0,0,346,155H306a7.5,7.5,0,0,0-7.5,7.5v40A7.5,7.5,0,0,0,306,210h40A7.5,7.5,0,0,0,353.5,202.5Zm-15-7.5h-25V170h25Z"/><path d="M276,155H236a7.5,7.5,0,0,0-7.5,7.5v40A7.5,7.5,0,0,0,236,210h40a7.5,7.5,0,0,0,7.5-7.5v-40A7.5,7.5,0,0,0,276,155Zm-7.5,40h-25V170h25Z"/><path d="M455.25,452h-40a7.5,7.5,0,0,0,0,15h40a7.5,7.5,0,0,0,0-15Z"/><path d="M415.25,422h40a7.5,7.5,0,0,0,0-15h-40a7.5,7.5,0,0,0,0,15Z"/><path d="M415.25,377h40a7.5,7.5,0,0,0,0-15h-40a7.5,7.5,0,0,0,0,15Z"/><path d="M415.25,332h40a7.5,7.5,0,0,0,0-15h-40a7.5,7.5,0,0,0,0,15Z"/><path d="M415.25,287h40a7.5,7.5,0,0,0,0-15h-40a7.5,7.5,0,0,0,0,15Z"/><path d="M415.25,242h40a7.5,7.5,0,0,0,0-15h-40a7.5,7.5,0,0,0,0,15Z"/></svg>
