<svg id="Layer_1" enable-background="new 0 0 500 500" viewBox="0 0 500 500" xmlns="http://www.w3.org/2000/svg"><path clip-rule="evenodd" d="m401.159 303.906c-6.918 0-12.505-5.625-12.505-12.537s5.587-12.537 12.505-12.537 12.558 5.625 12.558 12.537c0 6.913-5.641 12.537-12.558 12.537zm0-38.33c-14.208 0-25.756 11.574-25.756 25.793 0 14.224 11.547 25.793 25.756 25.793 14.261 0 25.809-11.569 25.809-25.793 0-14.219-11.548-25.793-25.809-25.793zm42.039 18.795c-.319-1.99.266-4.018 1.65-5.518l8.355-9.313-7.078-12.319-12.292 2.607c-1.969.421-4.044-.085-5.587-1.368-3.672-2.996-7.716-5.353-12.08-6.998-1.916-.708-3.352-2.235-3.991-4.156l-3.885-11.915h-14.208l-3.885 11.915c-.639 1.916-2.075 3.448-3.991 4.156-4.363 1.644-8.461 4.002-12.079 6.998-1.543 1.282-3.618 1.788-5.587 1.368l-12.293-2.607-7.077 12.319 8.355 9.318c1.384 1.495 1.969 3.523 1.65 5.513-.794 4.595-.793 9.398 0 13.995.319 1.99-.266 4.017-1.65 5.513l-8.355 9.318 7.077 12.319 12.293-2.608c1.969-.42 4.044.08 5.587 1.362 3.618 3.001 7.716 5.353 12.079 7.003 1.916.708 3.353 2.235 3.991 4.156l3.885 11.915h14.208l3.885-11.915c.638-1.916 2.075-3.443 3.991-4.156 4.364-1.644 8.461-4.002 12.08-6.997 1.543-1.283 3.619-1.788 5.587-1.368l12.292 2.608 7.078-12.319-8.408-9.318c-1.331-1.495-1.916-3.523-1.596-5.513.776-4.833.779-9.168-.001-13.995zm22.403 22.787-8.887-9.866c.425-3.945.426-7.905 0-11.846l8.887-9.876c2.341-2.581 2.714-6.343 1.011-9.36l-10.909-18.912c-1.756-3.017-5.215-4.555-8.621-3.831l-12.984 2.762c-3.246-2.347-6.652-4.332-10.27-5.933l-4.098-12.612c-1.064-3.32-4.151-5.545-7.61-5.545h-21.87c-3.459 0-6.545 2.224-7.609 5.534l-4.098 12.622c-3.618 1.602-7.077 3.587-10.27 5.933l-12.984-2.762c-3.406-.724-6.865.814-8.621 3.831l-10.909 18.912c-1.756 3.017-1.33 6.78 1.011 9.371l8.887 9.866c-.426 3.937-.426 7.908 0 11.846l-8.887 9.866c-2.341 2.592-2.767 6.354-1.011 9.371l10.909 18.912c1.756 3.017 5.215 4.555 8.621 3.831l12.984-2.762c3.193 2.341 6.652 4.332 10.27 5.933l4.098 12.622c1.064 3.31 4.15 5.534 7.609 5.534h21.871c3.459 0 6.545-2.23 7.61-5.54l4.098-12.612c3.618-1.607 7.077-3.592 10.27-5.939l12.984 2.762c3.406.724 6.865-.814 8.621-3.831l10.909-18.912c1.702-3.01 1.329-6.773-1.012-9.369zm-102.863 118.997-29.055 29.076c-.266.271-.745.271-1.011 0l-54.012-53.996c-.266-.271-.266-.745 0-1.011l29.055-29.081c.251-.256.732-.284 1.011 0l54.012 54.002c.266.27.266.738 0 1.01zm-102.649-67.029 20.434 20.461 6.598-6.551-20.487-20.461zm-178.746-12.585c47.762 47.707 124.983 47.749 172.732 0 47.699-47.699 47.701-125.005 0-172.701-47.724-47.718-125.009-47.718-172.732 0-47.733 47.728-47.69 124.957 0 172.701zm105.896-226.915-15.113-16.789 14.048-24.287 22.084 4.699c1.969.42 4.044-.085 5.587-1.368 6.12-5.002 12.878-8.935 20.221-11.68 1.916-.708 3.353-2.24 3.991-4.156l6.971-21.477h28.044l6.971 21.477c.638 1.916 2.075 3.448 3.991 4.156 7.29 2.751 14.102 6.678 20.168 11.68 1.596 1.282 3.619 1.788 5.641 1.368l22.084-4.699 14.049 24.287-15.113 16.789c-1.384 1.501-1.969 3.528-1.65 5.513 1.279 7.834 1.279 15.52 0 23.361-.319 1.99.266 4.018 1.65 5.513l15.113 16.795-14.049 24.287-22.084-4.693c-2.022-.426-4.044.08-5.587 1.362-4.523 3.72-9.472 6.843-14.687 9.334-2.501-5.135-5.321-10.116-8.461-14.921 19.21-8.551 31.981-27.703 31.981-49.35 0-29.8-24.266-54.039-54.065-54.039-27.512 0-50.287 20.695-53.586 47.339-5.481-1.575-11.069-2.815-16.762-3.693.283-2.304.783-4.399-1.437-6.808zm76.202 44.844c-13.091-13.101-28.416-23.175-45.125-29.901 1.171-21.44 18.997-38.527 40.709-38.527 22.509 0 40.815 18.295 40.815 40.783 0 17.316-10.856 32.514-26.82 38.314-2.981-3.693-6.173-7.258-9.579-10.669zm54.651 197.301 54.012 54.001c5.481 5.444 5.481 14.309 0 19.753l-29.055 29.081c-5.404 5.412-14.278 5.469-19.742 0l-54.012-54.002c-5.481-5.449-5.481-14.309 0-19.758l1.863-1.889-21.233-21.227c-23.467 18.05-52.096 27.831-82.216 27.831-74.837 0-135.376-60.554-135.376-135.371 0-77.217 64.267-138.818 141.922-135.217l-14.102-15.661c-2.608-2.847-3.033-6.987-1.118-10.308l17.241-29.874c1.916-3.32 5.747-5.013 9.472-4.22l22.244 4.726c5.694-4.326 11.867-7.897 18.412-10.648l7.024-21.583c1.171-3.645 4.523-6.093 8.354-6.093h34.536c3.778 0 7.184 2.448 8.355 6.088l7.024 21.589c6.545 2.751 12.718 6.322 18.412 10.648l22.244-4.726c3.725-.793 7.503.899 9.419 4.215l17.295 29.88c1.916 3.321 1.437 7.461-1.118 10.313l-15.166 16.869c.851 7.055.851 14.21 0 21.27l15.166 16.88c2.554 2.842 3.033 6.987 1.118 10.302l-17.295 29.874c-1.916 3.326-5.694 5.018-9.472 4.22l-22.19-4.725c-4.789 3.65-9.898 6.753-15.326 9.286 15.927 43.47 8.759 92.287-19.53 129.145l21.232 21.222 1.863-1.889c5.402-5.414 14.325-5.475 19.743-.002zm-85.515-36.691c-35.817 35.894-93.956 35.828-129.789 0-15.751-15.762-25.064-36.244-26.607-58.264h28.15c2.448 0 4.683-1.33 5.854-3.464l12.292-22.653 29.693 64.367c2.487 5.312 10.149 5.055 12.239-.431l32.248-85.249 18.093 43.354c1.011 2.469 3.459 4.076 6.12 4.076h38.367c-1.543 22.02-10.855 42.502-26.66 58.264zm-129.789-129.778c35.882-35.859 93.906-35.872 129.789 0 15.805 15.757 25.117 36.244 26.66 58.264h-33.951l-22.776-54.667c-2.32-5.514-10.183-5.366-12.346.202l-32.567 86.068-28.629-62.021c-2.315-4.984-9.27-5.113-11.813-.389l-16.762 30.806h-24.212c1.543-22.019 10.856-42.507 26.607-58.263zm139.155-9.376c-40.966-41.044-107.524-41.024-148.52 0-41.024 41.051-41.024 107.474 0 148.525 40.976 41.004 107.458 41.09 148.52 0 41.063-41.091 41.027-107.52 0-148.525z" fill-rule="evenodd"/></svg>