<svg id="Capa_1" enable-background="new 0 0 512 512" height="512" viewBox="0 0 512 512" width="512" xmlns="http://www.w3.org/2000/svg"><g><path d="m458.5 302.001v-302.001h-405v45h15v-30h237.77l-16.274 61.841 14.506 3.818 17.279-65.659h29.489l-35.023 133.091 14.506 3.816 36.028-136.907h76.719v287.001c0 20.678-16.823 37.5-37.502 37.5v15c20.679 0 37.502 16.822 37.502 37.5v104.999h-30v15h45v-119.999c0-20.678 16.823-37.5 37.502-37.5v-15c-20.679 0-37.502-16.822-37.502-37.5zm-7.5 62.981c-4.435-7.358-10.624-13.546-17.982-17.981 7.359-4.436 13.548-10.623 17.982-17.981 4.435 7.358 10.624 13.546 17.982 17.981-7.358 4.436-13.547 10.623-17.982 17.981z"/><path d="m368.501 392h-15c0 20.678-16.823 37.5-37.502 37.5v15c20.679 0 37.502 16.822 37.502 37.5h15c0-20.678 16.824-37.5 37.502-37.5v-15c-20.678 0-37.502-16.822-37.502-37.5zm-7.5 62.981c-4.435-7.358-10.624-13.546-17.982-17.981 7.359-4.436 13.548-10.623 17.982-17.981 4.435 7.358 10.624 13.546 17.982 17.981-7.358 4.436-13.547 10.623-17.982 17.981z"/><path d="m143.499 120h15c0-20.678 16.823-37.5 37.502-37.5v-15c-20.679 0-37.502-16.822-37.502-37.5h-15c0 20.678-16.824 37.5-37.502 37.5v15c20.678 0 37.502 16.822 37.502 37.5zm7.5-62.981c4.435 7.358 10.624 13.546 17.982 17.981-7.359 4.436-13.548 10.623-17.982 17.981-4.435-7.358-10.624-13.546-17.982-17.981 7.358-4.436 13.547-10.623 17.982-17.981z"/><path d="m413.5 60h15v15h-15z"/><path d="m413.5 30h15v15h-15z"/><path d="m222.004 435.159-14.506-3.818-17.279 65.659h-29.489l35.023-133.091-14.506-3.816-36.028 136.907h-76.719v-287.001c0-20.678 16.823-37.5 37.502-37.5v-15c-20.679 0-37.502-16.822-37.502-37.5v-59.999h-15v59.999c0 20.678-16.823 37.5-37.502 37.5v15c20.679 0 37.502 16.822 37.502 37.5v302.001h345v-15h-192.77zm-178.986-270.16c7.359-4.436 13.548-10.623 17.982-17.981 4.435 7.358 10.624 13.546 17.982 17.981-7.358 4.436-13.547 10.623-17.982 17.981-4.435-7.358-10.624-13.545-17.982-17.981z"/></g></svg>