<?xml version="1.0" encoding="iso-8859-1"?>
<!-- Generator: Adobe Illustrator 19.0.0, SVG Export Plug-In . SVG Version: 6.00 Build 0)  -->
<svg version="1.1" id="Capa_1" xmlns="http://www.w3.org/2000/svg" xmlns:xlink="http://www.w3.org/1999/xlink" x="0px" y="0px"
	 viewBox="0 0 512 512" style="enable-background:new 0 0 512 512;" xml:space="preserve">
<g>
	<g>
		<g>
			<path d="M256,0C114.833,0,0,114.844,0,256s114.833,256,256,256s256-114.844,256-256S397.167,0,256,0z M256,490.667
				C126.604,490.667,21.333,385.396,21.333,256c0-60.866,23.488-116.212,61.628-157.956L187.017,202.1
				c-20.238,34.936-37.684,72.109-37.684,96.566c0,58.813,47.854,106.667,106.667,106.667c36.44,0,68.611-18.423,87.861-46.389
				l70.095,70.095C372.212,467.178,316.866,490.667,256,490.667z M328.333,343.417C313.27,367.674,286.603,384,256,384
				c-47.063,0-85.333-38.281-85.333-85.333c0-18.555,14.195-49.44,32.083-80.833L328.333,343.417z M213.953,198.87
				c14.69-24.112,30.319-47.109,42.047-63.464c29.917,41.708,85.333,126.563,85.333,163.26c0,8.311-1.568,16.188-3.794,23.789
				L213.953,198.87z M429.039,413.956l-74.542-74.542c5.22-12.569,8.169-26.313,8.169-40.747
				c0-54.979-88.083-174.302-98.125-187.719c-4.042-5.396-13.042-5.396-17.083,0c-4.755,6.353-27.009,36.53-49.125,72.302
				L98.044,82.961C139.788,44.822,195.134,21.333,256,21.333c129.396,0,234.667,105.271,234.667,234.667
				C490.667,316.866,467.178,372.212,429.039,413.956z"/>
			<path d="M192,298.667c0,35.292,28.708,64,64,64c5.896,0,10.667-4.771,10.667-10.667c0-5.896-4.771-10.667-10.667-10.667
				c-23.521,0-42.667-19.135-42.667-42.667c0-5.896-4.771-10.667-10.667-10.667C196.771,288,192,292.771,192,298.667z"/>
		</g>
	</g>
</g>
<g>
</g>
<g>
</g>
<g>
</g>
<g>
</g>
<g>
</g>
<g>
</g>
<g>
</g>
<g>
</g>
<g>
</g>
<g>
</g>
<g>
</g>
<g>
</g>
<g>
</g>
<g>
</g>
<g>
</g>
</svg>
