<svg id="Layer_1" enable-background="new 0 0 512 512" viewBox="0 0 512 512" xmlns="http://www.w3.org/2000/svg"><path d="m408.504 464.201h-13.139v-16.285c0-24.202-9.016-47.723-24.832-65.083v-59.386c0-4.423-3.585-8.008-8.008-8.008h-42.128c8.863-15.868 13.654-34.739 13.654-54.582 0-44.757 0-95.485-76.379-95.485-76.408 0-76.408 50.728-76.408 95.485 0 19.822 4.795 38.694 13.665 54.582h-42.111c-4.423 0-8.008 3.585-8.008 8.008v59.386c-15.833 17.376-24.86 40.898-24.86 65.083v16.285h-13.11c-4.423 0-8.008 3.585-8.008 8.008v31.776c0 4.423 3.585 8.008 8.008 8.008h245.708c4.423 0 8.008-3.585 8.008-8.008s-3.585-8.008-8.008-8.008h-237.7v-15.761h121.224 43.2 121.224v15.761h-24.874c-4.423 0-8.008 3.585-8.008 8.008s3.585 8.008 8.008 8.008h32.882c4.423 0 8.008-3.585 8.008-8.008v-31.776c0-4.423-3.585-8.008-8.008-8.008zm-150.832-282.813c55.624 0 60.113 26.818 60.352 74.424-7.501 2.368-15.322 3.586-23.331 3.586-26.875 0-51.444-13.611-65.724-36.41-1.495-2.387-4.099-3.803-6.95-3.756-2.816.058-5.395 1.59-6.791 4.036-4.617 8.089-10.647 15.238-17.762 21.154 1.16-40.47 9.162-63.034 60.206-63.034zm-35.214 59.933c17.658 21.538 43.883 34.092 72.234 34.092 7.727 0 15.315-.944 22.684-2.781-1.8 16.062-7.276 30.87-15.908 42.806h-87.616c-10.12-14.019-15.901-31.956-16.508-51.205 9.725-6.061 18.231-13.83 25.114-22.912zm5.607 222.88h-92.098v-16.285c0-13.013 3.119-25.775 8.844-37.074v35.571c0 4.423 3.585 8.008 8.008 8.008h75.246zm43.2 0h-27.184v-26.589h27.184zm8.007-42.605h-43.2c-4.423 0-8.008 3.585-8.008 8.008v8.802h-67.238v-106.951h193.691v106.951h-67.237v-8.802c0-4.423-3.585-8.008-8.008-8.008zm100.078 42.605h-92.07v-9.78h75.246c4.423 0 8.008-3.585 8.008-8.008v-35.549c5.707 11.288 8.816 24.04 8.816 37.052zm-190.532-365.61 9.054 2.038c.159.396.321.791.488 1.183l-4.95 7.858c-1.665 2.644-1.641 6.014.063 8.633 5.786 8.899 13.548 16.661 22.446 22.446 2.62 1.704 5.99 1.728 8.633.062l7.862-4.952c.389.166.781.329 1.174.488l2.043 9.06c.689 3.058 3.099 5.432 6.167 6.075 5.2 1.092 10.542 1.645 15.875 1.645 5.347 0 10.682-.554 15.856-1.647 3.057-.646 5.46-3.011 6.153-6.058l2.065-9.071c.395-.159.788-.323 1.179-.49l7.831 4.945c2.644 1.67 6.019 1.647 8.641-.057 9.003-5.854 16.561-13.4 22.464-22.43 1.716-2.625 1.742-6.011.066-8.662l-4.966-7.853c.165-.388.327-.779.486-1.172l9.054-2.042c3.058-.689 5.432-3.099 6.075-6.167 1.111-5.292 1.674-10.632 1.674-15.875 0-5.224-.563-10.555-1.674-15.847-.643-3.062-3.009-5.469-6.06-6.163l-9.071-2.065c-.157-.388-.318-.774-.482-1.157l4.963-7.849c1.676-2.651 1.651-6.036-.065-8.661-5.888-9.008-13.44-16.561-22.447-22.448-2.625-1.716-6.011-1.742-8.661-.065l-7.849 4.963c-.383-.164-.769-.325-1.157-.481l-2.065-9.072c-.693-3.047-3.097-5.413-6.154-6.058-10.338-2.183-21.315-2.187-31.729-.002-3.068.644-5.478 3.018-6.167 6.076l-2.043 9.06c-.391.158-.779.319-1.166.484l-7.858-4.969c-2.651-1.676-6.036-1.65-8.661.065-9.029 5.902-16.576 13.46-22.43 22.464-1.703 2.619-1.727 5.99-.062 8.633l4.947 7.854c-.165.388-.326.777-.483 1.167l-9.072 2.061c-3.052.693-5.42 3.101-6.063 6.164-1.092 5.202-1.646 10.533-1.646 15.847 0 5.332.554 10.673 1.646 15.875.642 3.068 3.017 5.479 6.076 6.167zm8.765-29.623 8.119-1.844c2.778-.631 5.011-2.69 5.866-5.408.784-2.495 1.795-4.938 3.006-7.262 1.315-2.525 1.191-5.559-.327-7.968l-4.428-7.03c3.106-3.995 6.732-7.625 10.734-10.749l7.017 4.437c2.4 1.518 5.425 1.651 7.949.349 2.353-1.212 4.837-2.246 7.386-3.07 2.691-.871 4.724-3.098 5.346-5.857l1.822-8.079c5.038-.627 10.174-.626 15.185-.001l1.843 8.096c.626 2.753 2.656 4.972 5.342 5.841 2.562.83 5.028 1.857 7.328 3.055 2.53 1.317 5.568 1.19 7.979-.334l7.023-4.44c4.026 3.126 7.62 6.721 10.748 10.748l-4.44 7.023c-1.524 2.41-1.652 5.449-.334 7.979 1.197 2.298 2.226 4.765 3.056 7.329.869 2.686 3.088 4.715 5.841 5.341l8.104 1.845c.327 2.548.491 5.084.491 7.582 0 2.507-.165 5.048-.49 7.599l-8.089 1.825c-2.759.622-4.985 2.654-5.856 5.344-.847 2.615-1.875 5.09-3.056 7.356-1.318 2.53-1.19 5.569.334 7.979l4.437 7.017c-3.123 4.001-6.751 7.626-10.744 10.73l-6.999-4.42c-2.401-1.515-5.423-1.648-7.945-.347-2.35 1.211-4.835 2.245-7.387 3.071-2.686.869-4.715 3.088-5.341 5.841l-1.843 8.096c-5.008.625-10.146.626-15.184-.002l-1.822-8.079c-.622-2.759-2.654-4.985-5.345-5.856-2.551-.827-5.037-1.86-7.386-3.071-2.52-1.301-5.54-1.17-7.938.341l-7.03 4.429c-3.998-3.108-7.624-6.734-10.732-10.732l4.429-7.03c1.518-2.409 1.642-5.443.326-7.969-1.195-2.293-2.207-4.746-3.006-7.29-.856-2.723-3.096-4.784-5.881-5.411l-8.104-1.824c-.314-2.518-.472-5.06-.472-7.599-.005-2.53.154-5.066.468-7.581zm60.089 44.134c20.14 0 36.524-16.397 36.524-36.553 0-20.14-16.385-36.524-36.524-36.524-20.155 0-36.553 16.385-36.553 36.524.001 20.155 16.398 36.553 36.553 36.553zm0-57.062c11.309 0 20.509 9.2 20.509 20.509 0 11.324-9.2 20.537-20.509 20.537-11.324 0-20.537-9.213-20.537-20.537 0-11.309 9.213-20.509 20.537-20.509zm-148.377 244.885c7.701-1.307 13.576-7.785 13.576-15.576v-8.805c4.288-2.559 7.172-7.202 7.172-12.512 0-6.251 2.438-9.433 7.511-15.475 6.496-7.737 15.393-18.333 15.393-40.821 0-36.708-30.436-66.572-67.847-66.572-37.427 0-67.875 29.864-67.875 66.572 0 22.487 8.896 33.083 15.393 40.821 5.073 6.042 7.511 9.224 7.511 15.475 0 5.304 2.883 9.943 7.172 12.504v8.813c0 7.791 5.875 14.269 13.576 15.576 1.403 11.52 11.729 20.495 24.224 20.495 12.479 0 22.793-8.975 24.194-20.495zm-53.178-38.296c-.433-11.505-6.16-18.326-11.235-24.371-5.987-7.131-11.643-13.867-11.643-30.522 0-27.877 23.264-50.556 51.86-50.556 28.58 0 51.832 22.679 51.832 50.556 0 16.655-5.655 23.391-11.643 30.522-5.076 6.045-10.802 12.866-11.235 24.371zm7.609 22.536c-.195 0-.33-.052-.411-.099v-6.421h43.54v6.421c-.081.046-.216.099-.411.099zm21.373 20.239c-3.324 0-6.264-1.76-7.604-4.224h15.182c-1.335 2.464-4.265 4.224-7.578 4.224zm407.327-128.648-17.037-17.008c-1.501-1.499-3.536-2.341-5.658-2.341h-96.123c-4.423 0-8.008 3.585-8.008 8.008v131.754c0 4.423 3.585 8.008 8.008 8.008h113.159c4.423 0 8.008-3.585 8.008-8.008v-114.746c.001-2.126-.844-4.165-2.349-5.667zm-13.665 112.406h-97.144v-115.739h84.802l12.342 12.321zm-14.217-77.457-41.103 45.666c-1.521 1.69-3.687 2.651-5.952 2.651-.097 0-.193-.001-.29-.005-2.37-.085-4.579-1.217-6.034-3.089l-15.704-20.211c-2.714-3.492-2.083-8.523 1.41-11.236 3.492-2.713 8.523-2.083 11.236 1.41l9.832 12.653 34.699-38.553c2.959-3.287 8.022-3.553 11.31-.595 3.289 2.958 3.555 8.021.596 11.309z"/></svg>